<?xml version="1.0" encoding="iso-8859-1"?>
<!-- Generator: Adobe Illustrator 19.0.0, SVG Export Plug-In . SVG Version: 6.00 Build 0)  -->
<svg version="1.1" id="Layer_1" xmlns="http://www.w3.org/2000/svg" xmlns:xlink="http://www.w3.org/1999/xlink" x="0px" y="0px"
	 viewBox="0 0 512 512" style="enable-background:new 0 0 512 512;" xml:space="preserve">
<g>
	<g>
		<path d="M149.361,412.245c-54.546-59.507-54.546-150.84,0-210.347c2.958-3.669,2.381-9.041-1.289-11.999
			c-3.339-2.691-8.157-2.486-11.255,0.479c-60.512,66.028-60.512,167.358,0,233.387c1.676,1.91,4.116,2.973,6.656,2.901
			c4.71-0.157,8.401-4.102,8.245-8.813C151.648,415.758,150.809,413.762,149.361,412.245z"/>
	</g>
</g>
<g>
	<g>
		<path d="M315.761,112.043V93.867c0-14.139-11.461-25.6-25.6-25.6h-29.867v-25.6c0-14.138,11.462-25.6,25.6-25.6
			c14.138,0,25.6,11.462,25.6,25.6c0,23.564,19.103,42.667,42.667,42.667s42.667-19.102,42.667-42.667
			c0-4.713-3.82-8.533-8.533-8.533s-8.533,3.82-8.533,8.533c0,14.138-11.461,25.6-25.6,25.6s-25.6-11.461-25.6-25.6
			C328.561,19.103,309.458,0,285.894,0s-42.667,19.103-42.667,42.667v25.6h-21.333c-14.138,0-25.6,11.461-25.6,25.6v18.176
			C88.504,146.318,28.909,261.484,63.184,369.274C89.954,453.462,167.691,510.996,256.027,512
			c113.101-1.285,203.745-94.013,202.46-207.114C457.483,216.55,399.949,138.813,315.761,112.043z M256.027,494.933
			c-103.674-1.342-186.63-86.473-185.288-190.147c1.074-83.008,56.54-155.456,136.392-178.152v-0.171
			c3.799-1.063,6.375-4.591,6.229-8.533V93.867c0-4.713,3.821-8.533,8.533-8.533h28.928h0.939h0.939h37.461
			c4.713,0,8.533,3.82,8.533,8.533v24.576c-0.146,3.942,2.43,7.471,6.229,8.533c99.554,28.967,156.775,133.154,127.808,232.708
			C409.775,438.579,338.18,493.378,256.027,494.933z"/>
	</g>
</g>
<g>
</g>
<g>
</g>
<g>
</g>
<g>
</g>
<g>
</g>
<g>
</g>
<g>
</g>
<g>
</g>
<g>
</g>
<g>
</g>
<g>
</g>
<g>
</g>
<g>
</g>
<g>
</g>
<g>
</g>
</svg>
